<svg width="72" height="32" viewBox="0 0 72 32" fill="none" xmlns="http://www.w3.org/2000/svg">
<path fill-rule="evenodd" clip-rule="evenodd" d="M63.1667 20.0003C63.1667 22.1396 63.6392 23.7355 64.5851 24.7883L64.6189 24.763C65.1673 25.3155 65.8287 25.7428 66.5569 26.0154C67.2859 26.288 68.0652 26.3995 68.8412 26.3421C69.477 26.355 70.1095 26.2892 70.7264 26.1473C71.0579 26.0709 71.3844 25.9724 71.7044 25.8524L71.1972 23.5217C70.5128 23.888 69.7442 24.0685 68.9682 24.0452C68.3497 24.0805 67.7328 23.9646 67.1696 23.7074C66.956 23.5738 66.7713 23.399 66.6261 23.193C66.481 22.9872 66.3787 22.7543 66.3251 22.5083C66.2328 22.1055 66.166 21.6978 66.1256 21.2876C66.0819 20.852 66.067 20.4135 66.0802 19.975C66.0538 19.1231 66.1388 18.2714 66.3334 17.4416C66.4431 16.9383 66.7465 16.4984 67.1778 16.2171C67.4813 16.0778 67.8013 15.979 68.1287 15.9221C68.4181 15.8717 68.7142 15.8542 69.0102 15.8709C69.6741 15.85 70.333 15.9952 70.9276 16.2932L71.4595 14.0131C70.6126 13.7328 69.7252 13.5958 68.8329 13.6078C65.0552 13.6021 63.1667 15.733 63.1667 20.0003ZM47.8914 16.1242V26.1985H45.0365V16.1242H41.8195V13.7766H51.1085V16.1242H47.8914ZM57.2984 13.7766C59.882 13.7766 61.1743 14.8828 61.1743 17.0953C61.2147 17.7612 61.0242 18.4206 60.6341 18.9616C60.4445 19.188 60.2078 19.3708 59.9414 19.4977C59.6742 19.6245 59.3839 19.6922 59.0887 19.6962C59.4524 19.7009 59.8111 19.7779 60.1443 19.9229C60.2795 19.9816 60.409 20.0507 60.5319 20.1298C60.602 20.175 60.6704 20.2233 60.7364 20.2746C60.8411 20.3559 60.9393 20.4448 61.0308 20.5407C61.5231 21.1232 61.7713 21.8737 61.7235 22.6349C61.7235 25.0332 60.2705 26.2239 57.366 26.2239H52.8732V13.7766H57.2984ZM57.9317 18.6997C57.9919 18.6774 58.0488 18.6476 58.1024 18.6112L58.1535 18.5729L58.2006 18.5311C58.2772 18.457 58.3383 18.3678 58.3787 18.2691C58.5494 17.6673 58.5494 17.03 58.3787 16.4282L58.3539 16.3735C58.3144 16.2964 58.2624 16.2264 58.2006 16.1662C58.123 16.0921 58.0315 16.0346 57.9317 15.9975C57.8187 15.96 57.7033 15.9305 57.587 15.9093C57.3973 15.8747 57.2044 15.8617 57.0114 15.8708H55.5921V18.8349H56.9941C57.1268 18.8404 57.2588 18.8356 57.3907 18.8208C57.5746 18.7999 57.7561 18.7595 57.9317 18.6997ZM58.3531 23.8632C58.4183 23.8299 58.4785 23.7883 58.5321 23.7394C58.5766 23.6991 58.617 23.6542 58.6516 23.6057C58.6879 23.5559 58.7184 23.5023 58.7424 23.4456C58.8586 23.1241 58.9106 22.7824 58.8941 22.4407C58.904 22.2563 58.8933 22.0719 58.8628 21.8907C58.8372 21.7361 58.7968 21.5837 58.7424 21.4358C58.716 21.3724 58.6813 21.3127 58.6409 21.2578C58.6079 21.2138 58.5708 21.1729 58.5296 21.1358C58.4381 21.0526 58.3284 20.9908 58.2105 20.9545C57.8476 20.8534 57.4716 20.8078 57.0955 20.8193H55.5921V24.0537H57.0955C57.2687 24.0614 57.4419 24.0561 57.6134 24.038C57.8179 24.0163 58.02 23.9765 58.2187 23.9185C58.2649 23.904 58.3102 23.8854 58.3531 23.8632Z" fill="#6F787B"/>
<path fill-rule="evenodd" clip-rule="evenodd" d="M15.8945 17.7202C16.038 19.2318 16.1139 20.0171 14.8893 21.3092C12.5472 23.5071 9.95366 25.4204 7.16301 27.0092C5.67532 27.8817 4.12248 28.6383 2.51851 29.2724C1.47944 29.6524 0.592931 29.8129 0.162458 29.0529C0.0552523 28.8466 0 28.6179 0 28.3857C0 28.1536 0.0552523 27.9248 0.162458 27.7186C1.30214 24.6364 4.57027 18.894 6.70697 15.1532C6.92633 14.7731 7.14569 14.3762 7.38237 13.9794C10.6587 8.313 14.9824 1.38006 15.8269 0.265422C15.9539 0.104922 16.1815 -0.0808334 16.3844 0.0374026C16.4116 0.0570915 16.4355 0.0798728 16.4569 0.105231C16.4883 0.142856 16.513 0.186048 16.5295 0.232951C16.5567 0.3115 16.5592 0.396543 16.5361 0.476536L16.4924 0.651364L16.4602 0.78898C15.0501 6.51431 15.2018 12.13 15.8525 17.7202H15.8945ZM20.6907 19.4852C19.3144 18.8603 18.5969 18.531 18.0898 16.8252C17.355 13.6983 16.9946 10.495 17.0177 7.28289C17.0086 6.30907 17.0424 5.33576 17.1191 4.36575C17.1777 3.61871 17.2626 2.87362 17.3723 2.13174C17.5752 1.0339 17.8704 0.18945 18.7487 0.18945C18.9804 0.201511 19.2055 0.269236 19.4051 0.386854C19.6055 0.504471 19.7737 0.668476 19.8974 0.865055C21.9995 3.39842 25.3435 9.09849 27.4975 12.814L28.1729 13.9794C31.441 19.6542 35.2658 26.8996 35.773 28.1916C35.8488 28.3774 35.8991 28.6729 35.688 28.7911C35.6476 28.8074 35.6047 28.8172 35.5619 28.8205C35.5231 28.8234 35.4843 28.821 35.4464 28.8132C35.401 28.8039 35.3573 28.7871 35.3178 28.7638C35.2864 28.7458 35.2576 28.7238 35.232 28.6983L35.0044 28.4787C30.7821 24.3916 25.8168 21.723 20.6487 19.4852H20.6907ZM16.8627 22.6862L16.7645 22.7533C12.2462 26.1226 7.46731 29.0529 1.80106 30.6995L1.49676 30.784C1.41429 30.803 1.33925 30.8474 1.28317 30.911C1.2271 30.9747 1.19246 31.0543 1.18421 31.1386C1.18421 31.3751 1.46295 31.5018 1.66582 31.5018C3.05042 31.6876 11.2335 32 17.7863 32H19.1371L19.26 31.9994C23.5696 31.9739 30.0869 31.9357 33.2899 31.3836C33.5225 31.3744 33.7493 31.3089 33.9513 31.1927C34.1525 31.0765 34.3232 30.9131 34.4469 30.7164C34.8865 29.9648 34.3034 29.2809 33.459 28.5631C32.9972 28.197 32.5255 27.8433 32.0447 27.5024C31.1186 26.8449 30.1587 26.235 29.1691 25.675C26.4007 24.0523 23.4501 22.7625 20.379 21.8327C18.6934 21.4301 18.0329 21.8832 16.8627 22.6862Z" fill="#00ADEE"/>
</svg>
